# Blender 4.4.1
# www.blender.org
mtllib enemy.mtl
o Cube
v 1.000000 0.725807 -1.000000
v 1.000000 -0.725807 -1.000000
v 1.000000 0.725807 1.000000
v 1.000000 -0.725807 1.000000
v -1.000000 0.725807 -1.000000
v -1.000000 -0.725807 -1.000000
v -1.000000 0.725807 1.000000
v -1.000000 -0.725807 1.000000
v 0.670986 -0.725807 -1.000000
v 0.337653 -0.725807 -1.000000
v -0.329014 -0.725807 -1.000000
v -0.662347 -0.725807 -1.000000
v 0.670986 0.725807 1.000000
v 0.337653 0.725807 1.000000
v 0.004319 0.725807 1.000000
v -0.329014 0.725807 1.000000
v -0.662347 0.725807 1.000000
v -0.662347 -0.725807 1.000000
v -0.329014 -0.725807 1.000000
v 0.004319 -0.725807 1.000000
v 0.337653 -0.725807 1.000000
v 0.670986 -0.725807 1.000000
v -0.662347 0.725807 -1.000000
v -0.329014 0.725807 -1.000000
v 0.337653 0.725807 -1.000000
v 0.670986 0.725807 -1.000000
v -1.000000 -0.725807 -0.666667
v -1.000000 -0.725807 -0.333333
v -1.000000 -0.725807 0.000000
v -1.000000 -0.725807 0.333333
v -1.000000 -0.725807 0.666667
v 1.000000 0.725807 -0.666667
v 1.000000 0.725807 -0.333333
v 1.000000 0.725807 0.000000
v 1.000000 0.725807 0.333333
v 1.000000 0.725807 0.666667
v -1.000000 0.725807 0.666667
v -1.000000 0.725807 0.333333
v -1.000000 0.725807 -0.000000
v -1.000000 0.725807 -0.333333
v -1.000000 0.725807 -0.666667
v 1.000000 -0.725807 0.666667
v 1.000000 -0.725807 0.333333
v 1.000000 -0.725807 -0.000000
v 1.000000 -0.725807 -0.333333
v 1.000000 -0.725807 -0.666667
v -0.662347 -0.725807 -0.666667
v -0.662347 -0.725807 -0.333333
v -0.662347 -0.725807 0.000000
v -0.662347 -0.725807 0.333333
v -0.662347 -0.725807 0.666667
v -0.329014 -0.725807 -0.666667
v -0.329014 -0.725807 0.000000
v -0.329014 -0.725807 0.333333
v -0.329014 -0.725807 0.666667
v 0.004319 -0.725807 0.000000
v 0.004319 -0.725807 0.333333
v 0.004319 -0.725807 0.666667
v 0.337653 -0.725807 -0.666667
v 0.337653 -0.725807 0.000000
v 0.337653 -0.725807 0.333333
v 0.337653 -0.725807 0.666667
v 0.670986 -0.725807 -0.666667
v 0.670986 -0.725807 -0.333333
v 0.670986 -0.725807 0.000000
v 0.670986 -0.725807 0.333333
v 0.670986 -0.725807 0.666667
v 0.670986 0.725807 -0.666667
v 0.670986 0.725807 -0.333333
v 0.670986 0.725807 0.000000
v 0.670986 0.725807 0.333333
v 0.670986 0.725807 0.666667
v 0.337653 0.725807 -0.666667
v 0.337653 0.725807 0.000000
v 0.337653 0.725807 0.333333
v 0.337653 0.725807 0.666667
v 0.004319 0.725807 0.000000
v 0.004319 0.725807 0.333333
v 0.004319 0.725807 0.666667
v -0.329014 0.725807 -0.666667
v -0.329014 0.725807 0.000000
v -0.329014 0.725807 0.333333
v -0.329014 0.725807 0.666667
v -0.662347 0.725807 -0.666667
v -0.662347 0.725807 -0.333333
v -0.662347 0.725807 0.000000
v -0.662347 0.725807 0.333333
v -0.662347 0.725807 0.666667
vn -0.0000 1.0000 -0.0000
vn -0.0000 -0.0000 1.0000
vn -1.0000 -0.0000 -0.0000
vn -0.0000 -1.0000 -0.0000
vn 1.0000 -0.0000 -0.0000
vn -0.0000 -0.0000 -1.0000
vt 0.832793 0.708333
vt 0.875000 0.708333
vt 0.875000 0.750000
vt 0.832793 0.750000
vt 0.375000 0.957793
vt 0.625000 0.957793
vt 0.625000 1.000000
vt 0.375000 1.000000
vt 0.375000 0.208333
vt 0.625000 0.208333
vt 0.625000 0.250000
vt 0.375000 0.250000
vt 0.333873 0.708333
vt 0.375000 0.708333
vt 0.375000 0.750000
vt 0.333873 0.750000
vt 0.625000 0.708333
vt 0.625000 0.750000
vt 0.375000 0.458873
vt 0.625000 0.458873
vt 0.625000 0.500000
vt 0.375000 0.500000
vt 0.625000 0.292207
vt 0.375000 0.292207
vt 0.625000 0.333873
vt 0.375000 0.333873
vt 0.375000 0.417207
vt 0.625000 0.417207
vt 0.125000 0.708333
vt 0.167207 0.708333
vt 0.167207 0.750000
vt 0.125000 0.750000
vt 0.208873 0.708333
vt 0.208873 0.750000
vt 0.250540 0.708333
vt 0.250540 0.750000
vt 0.292207 0.708333
vt 0.292207 0.750000
vt 0.625000 0.791127
vt 0.375000 0.791127
vt 0.625000 0.832793
vt 0.375000 0.832793
vt 0.625000 0.874460
vt 0.375000 0.874460
vt 0.625000 0.916127
vt 0.375000 0.916127
vt 0.666127 0.708333
vt 0.666127 0.750000
vt 0.707793 0.708333
vt 0.707793 0.750000
vt 0.749460 0.708333
vt 0.749460 0.750000
vt 0.791127 0.708333
vt 0.791127 0.750000
vt 0.791127 0.500000
vt 0.832793 0.500000
vt 0.832793 0.541667
vt 0.791127 0.541667
vt 0.791127 0.625000
vt 0.832793 0.625000
vt 0.832793 0.666667
vt 0.791127 0.666667
vt 0.749460 0.625000
vt 0.749460 0.666667
vt 0.707794 0.625000
vt 0.707793 0.666667
vt 0.666127 0.500000
vt 0.707793 0.500000
vt 0.707793 0.541667
vt 0.666127 0.541667
vt 0.292207 0.541667
vt 0.333873 0.541667
vt 0.292207 0.500000
vt 0.666127 0.625000
vt 0.666127 0.666667
vt 0.625000 0.541667
vt 0.666127 0.583333
vt 0.625000 0.583333
vt 0.625000 0.625000
vt 0.625000 0.666667
vt 0.333873 0.500000
vt 0.333873 0.583333
vt 0.333873 0.625000
vt 0.292207 0.625000
vt 0.333873 0.666667
vt 0.292207 0.666667
vt 0.250540 0.625000
vt 0.208873 0.625000
vt 0.250540 0.666667
vt 0.167207 0.625000
vt 0.167207 0.583333
vt 0.832793 0.583333
vt 0.167207 0.541667
vt 0.208873 0.666667
vt 0.167207 0.500000
vt 0.208873 0.500000
vt 0.208873 0.541667
vt 0.167207 0.666667
vt 0.125000 0.500000
vt 0.125000 0.541667
vt 0.125000 0.583333
vt 0.125000 0.625000
vt 0.125000 0.666667
vt 0.375000 0.541667
vt 0.375000 0.583333
vt 0.375000 0.625000
vt 0.375000 0.666667
vt 0.375000 0.000000
vt 0.625000 0.000000
vt 0.625000 0.041667
vt 0.375000 0.041667
vt 0.625000 0.083333
vt 0.375000 0.083333
vt 0.625000 0.125000
vt 0.375000 0.125000
vt 0.625000 0.166667
vt 0.375000 0.166667
vt 0.875000 0.500000
vt 0.875000 0.541667
vt 0.875000 0.583333
vt 0.875000 0.625000
vt 0.875000 0.666667
s 0
usemtl Material
f 88/1/1 37/2/1 7/3/1 17/4/1
f 18/5/2 17/6/2 7/7/2 8/8/2
f 27/9/3 41/10/3 5/11/3 6/12/3
f 67/13/4 42/14/4 4/15/4 22/16/4
f 42/14/5 36/17/5 3/18/5 4/15/5
f 9/19/6 26/20/6 1/21/6 2/22/6
f 6/12/6 5/11/6 23/23/6 12/24/6
f 12/24/6 23/23/6 24/25/6 11/26/6
f 10/27/6 25/28/6 26/20/6 9/19/6
f 31/29/4 51/30/4 18/31/4 8/32/4
f 51/30/4 55/33/4 19/34/4 18/31/4
f 55/33/4 58/35/4 20/36/4 19/34/4
f 58/35/4 62/37/4 21/38/4 20/36/4
f 62/37/4 67/13/4 22/16/4 21/38/4
f 4/15/2 3/18/2 13/39/2 22/40/2
f 22/40/2 13/39/2 14/41/2 21/42/2
f 21/42/2 14/41/2 15/43/2 20/44/2
f 20/44/2 15/43/2 16/45/2 19/46/2
f 19/46/2 16/45/2 17/6/2 18/5/2
f 36/17/1 72/47/1 13/48/1 3/18/1
f 72/47/1 76/49/1 14/50/1 13/48/1
f 76/49/1 79/51/1 15/52/1 14/50/1
f 79/51/1 83/53/1 16/54/1 15/52/1
f 83/53/1 88/1/1 17/4/1 16/54/1
f 24/55/1 23/56/1 84/57/1 80/58/1
f 81/59/1 86/60/1 87/61/1 82/62/1
f 82/62/1 87/61/1 88/1/1 83/53/1
f 77/63/1 81/59/1 82/62/1 78/64/1
f 78/64/1 82/62/1 83/53/1 79/51/1
f 74/65/1 77/63/1 78/64/1 75/66/1
f 75/66/1 78/64/1 79/51/1 76/49/1
f 26/67/1 25/68/1 73/69/1 68/70/1
f 73/69/2 59/71/2 63/72/2 68/70/2
f 25/68/3 10/73/3 59/71/3 73/69/3
f 70/74/1 74/65/1 75/66/1 71/75/1
f 71/75/1 75/66/1 76/49/1 72/47/1
f 1/21/1 26/67/1 68/70/1 32/76/1
f 32/76/1 68/70/1 69/77/1 33/78/1
f 33/78/1 69/77/1 70/74/1 34/79/1
f 34/79/1 70/74/1 71/75/1 35/80/1
f 35/80/1 71/75/1 72/47/1 36/17/1
f 10/73/4 9/81/4 63/72/4 59/71/4
f 64/82/3 69/77/3 68/70/3 63/72/3
f 65/83/3 70/74/3 69/77/3 64/82/3
f 60/84/4 65/83/4 66/85/4 61/86/4
f 61/86/4 66/85/4 67/13/4 62/37/4
f 65/83/6 60/84/6 74/65/6 70/74/6
f 77/63/6 74/65/6 60/84/6 56/87/6
f 81/59/6 77/63/6 56/87/6 53/88/6
f 56/87/4 60/84/4 61/86/4 57/89/4
f 57/89/4 61/86/4 62/37/4 58/35/4
f 86/60/6 81/59/6 53/88/6 49/90/6
f 49/90/5 48/91/5 85/92/5 86/60/5
f 48/91/5 47/93/5 84/57/5 85/92/5
f 53/88/4 56/87/4 57/89/4 54/94/4
f 54/94/4 57/89/4 58/35/4 55/33/4
f 12/95/4 11/96/4 52/97/4 47/93/4
f 84/57/2 47/93/2 52/97/2 80/58/2
f 24/55/5 80/58/5 52/97/5 11/96/5
f 49/90/4 53/88/4 54/94/4 50/98/4
f 50/98/4 54/94/4 55/33/4 51/30/4
f 6/99/4 12/95/4 47/93/4 27/100/4
f 27/100/4 47/93/4 48/91/4 28/101/4
f 28/101/4 48/91/4 49/90/4 29/102/4
f 29/102/4 49/90/4 50/98/4 30/103/4
f 30/103/4 50/98/4 51/30/4 31/29/4
f 2/22/5 1/21/5 32/76/5 46/104/5
f 46/104/5 32/76/5 33/78/5 45/105/5
f 45/105/5 33/78/5 34/79/5 44/106/5
f 44/106/5 34/79/5 35/80/5 43/107/5
f 43/107/5 35/80/5 36/17/5 42/14/5
f 9/81/4 2/22/4 46/104/4 63/72/4
f 63/72/4 46/104/4 45/105/4 64/82/4
f 64/82/4 45/105/4 44/106/4 65/83/4
f 65/83/4 44/106/4 43/107/4 66/85/4
f 66/85/4 43/107/4 42/14/4 67/13/4
f 8/108/3 7/109/3 37/110/3 31/111/3
f 31/111/3 37/110/3 38/112/3 30/113/3
f 30/113/3 38/112/3 39/114/3 29/115/3
f 29/115/3 39/114/3 40/116/3 28/117/3
f 28/117/3 40/116/3 41/10/3 27/9/3
f 23/56/1 5/118/1 41/119/1 84/57/1
f 84/57/1 41/119/1 40/120/1 85/92/1
f 85/92/1 40/120/1 39/121/1 86/60/1
f 86/60/1 39/121/1 38/122/1 87/61/1
f 87/61/1 38/122/1 37/2/1 88/1/1
